<svg width="18" height="18" viewBox="0 0 18 18" fill="none" xmlns="http://www.w3.org/2000/svg">
<path d="M9 1.8C7.09044 1.8 5.25909 2.55857 3.90883 3.90883C2.55857 5.25909 1.8 7.09044 1.8 9C1.8 10.9096 2.55857 12.7409 3.90883 14.0912C5.25909 15.4414 7.09044 16.2 9 16.2C10.9096 16.2 12.7409 15.4414 14.0912 14.0912C15.4414 12.7409 16.2 10.9096 16.2 9C16.2 7.09044 15.4414 5.25909 14.0912 3.90883C12.7409 2.55857 10.9096 1.8 9 1.8ZM0 9C0 4.0293 4.0293 0 9 0C13.9707 0 18 4.0293 18 9C18 13.9707 13.9707 18 9 18C4.0293 18 0 13.9707 0 9ZM9 3.6C9.23869 3.6 9.46761 3.69482 9.6364 3.8636C9.80518 4.03239 9.9 4.2613 9.9 4.5V8.6274L12.3363 11.0637C12.5002 11.2334 12.591 11.4608 12.5889 11.6968C12.5869 11.9327 12.4922 12.1585 12.3253 12.3253C12.1585 12.4922 11.9327 12.5869 11.6968 12.5889C11.4608 12.591 11.2334 12.5002 11.0637 12.3363L8.3637 9.6363C8.19491 9.46756 8.10005 9.23868 8.1 9V4.5C8.1 4.2613 8.19482 4.03239 8.3636 3.8636C8.53239 3.69482 8.7613 3.6 9 3.6Z" fill="#788486"/>
</svg>
