<svg width="22" height="20" viewBox="0 0 22 20" fill="none" xmlns="http://www.w3.org/2000/svg">
<path d="M2.92763 0.308799C2.72956 0.108415 2.46428 -0.00246481 2.18892 4.15851e-05C1.91357 0.00254798 1.65017 0.11824 1.45545 0.3222C1.26074 0.52616 1.15029 0.802068 1.1479 1.0905C1.14551 1.37893 1.25136 1.65681 1.44266 1.86428L3.98832 4.53082C2.48655 5.71449 1.17591 7.34037 0.196086 9.39528C0.123247 9.54797 0.0853271 9.71632 0.0853271 9.88701C0.0853271 10.0577 0.123247 10.226 0.196086 10.3787C2.46239 15.1277 6.48672 17.5874 10.5867 17.5874C12.2197 17.5874 13.8422 17.1969 15.344 16.4269L18.2457 19.4652C18.4438 19.6656 18.709 19.7765 18.9844 19.774C19.2598 19.7715 19.5232 19.6558 19.7179 19.4518C19.9126 19.2479 20.023 18.972 20.0254 18.6835C20.0278 18.3951 19.922 18.1172 19.7307 17.9097L2.92763 0.308799ZM13.7519 14.7581C12.7227 15.1794 11.6516 15.3873 10.5867 15.3873C7.46865 15.3873 4.28342 13.6052 2.32167 9.88701C3.17967 8.26002 4.27292 7.00486 5.49114 6.10611L7.74275 8.46463C7.46138 9.08061 7.36937 9.77285 7.47938 10.4459C7.58939 11.119 7.89601 11.7397 8.35697 12.2226C8.81793 12.7054 9.41054 13.0266 10.0531 13.1418C10.6956 13.2571 11.3565 13.1607 11.9446 12.866L13.7509 14.7581H13.7519ZM17.4675 11.9727C17.9747 11.3611 18.44 10.667 18.8517 9.88701C16.8899 6.16881 13.7057 4.38672 10.5867 4.38672C10.469 4.38672 10.3514 4.38892 10.2338 4.39442L8.35921 2.43191C9.09149 2.26895 9.83804 2.18674 10.5867 2.1866C14.6855 2.1866 18.7109 4.64633 20.9772 9.39528C21.0501 9.54797 21.088 9.71632 21.088 9.88701C21.088 10.0577 21.0501 10.226 20.9772 10.3787C20.439 11.5181 19.7592 12.5778 18.9556 13.5304L17.4675 11.9727Z" fill="#0D0D0D"/>
</svg>
