<svg width="25" height="25" viewBox="0 0 25 25" fill="none" xmlns="http://www.w3.org/2000/svg">
<g clip-path="url(#clip0_63_3638)">
<path d="M17.4287 13.5417C16.5378 13.5417 16.0917 14.6188 16.7216 15.2488L21.2725 19.7997C21.6861 20.2132 22.368 20.1868 22.7057 19.7094C23.7794 18.1912 24.4993 16.4512 24.8121 14.6182C24.9105 14.042 24.447 13.5417 23.8625 13.5417H17.4287Z" fill="#49E3C1"/>
<path d="M11.7636 13.2365L11.7512 13.2241C11.5637 13.0366 11.4583 12.7822 11.4583 12.517V1.13738C11.4583 0.552885 10.9581 0.0894618 10.3819 0.187534C8.80457 0.455994 7.29001 1.02541 5.92212 1.86823C4.24554 2.90126 2.83675 4.31579 1.81056 5.99657C0.784361 7.67734 0.169802 9.5768 0.0169571 11.5401C-0.135888 13.5035 0.177308 15.4752 0.93102 17.2945C1.68473 19.1138 2.85764 20.7294 4.35415 22.0094C5.85066 23.2895 7.62844 24.1978 9.5426 24.6605C11.4568 25.1231 13.4532 25.127 15.3691 24.6717C16.9323 24.3002 18.4059 23.6317 19.7109 22.7061C20.1876 22.3679 20.2137 21.6866 19.8004 21.2733L11.7636 13.2365Z" fill="#49E3C1"/>
<path d="M13.5416 10.4583C13.5416 11.0106 13.9893 11.4583 14.5416 11.4583H23.8608C24.446 11.4583 24.9096 10.957 24.8104 10.3803C24.3743 7.84579 23.1641 5.49782 21.3331 3.66682C19.5021 1.83582 17.1542 0.625645 14.6196 0.189576C14.043 0.0903624 13.5416 0.553991 13.5416 1.13912V10.4583Z" fill="#49E3C1"/>
</g>
<defs>
<clipPath id="clip0_63_3638">
<rect width="25" height="25" rx="12.5" fill="white"/>
</clipPath>
</defs>
</svg>
