<svg width="32" height="32" viewBox="0 0 32 32" fill="none" xmlns="http://www.w3.org/2000/svg">
<rect width="32" height="32" rx="10" fill="#49E3C1"/>
<path d="M26.4268 14.4906H17.5096V5.57328C17.5096 4.75247 16.8442 4.08707 16.0234 4.08707C15.2026 4.08707 14.5372 4.75247 14.5372 5.57328V14.4906H5.61988C4.79907 14.4906 4.13367 15.156 4.13367 15.9768C4.13367 16.7976 4.79907 17.463 5.61988 17.463H14.5372V26.3802C14.5372 27.2011 15.2026 27.8665 16.0234 27.8665C16.8442 27.8665 17.5096 27.2011 17.5096 26.3802V17.463H26.4268C27.2477 17.463 27.9131 16.7976 27.9131 15.9768C27.9131 15.156 27.2477 14.4906 26.4268 14.4906Z" fill="black"/>
</svg>
