<svg width="30" height="30" viewBox="0 0 30 30" fill="none" xmlns="http://www.w3.org/2000/svg">
<path d="M19.11 5.25207C18.625 4.76079 18.63 3.96949 19.1213 3.48446L21.8762 0.763021C22.8975 -0.254548 24.5613 -0.255798 25.5888 0.768021L28.3725 3.4782C28.8675 3.95949 28.8775 4.75079 28.3975 5.24582C28.1525 5.49709 27.8275 5.62335 27.5012 5.62335C27.1862 5.62335 26.8725 5.50584 26.63 5.26833L25.0012 3.68322V11.2487C25.0012 11.9388 24.4425 12.4988 23.7512 12.4988C23.06 12.4988 22.5012 11.9388 22.5012 11.2487V3.66072L20.88 5.26208C20.3875 5.74711 19.5987 5.74336 19.1112 5.25082L19.11 5.25207ZM30 13.7489V26.2497C30 28.3174 28.3175 30 26.25 30H6.25C2.80375 30 0 27.1961 0 23.7496V11.2487C0 10.1399 0.29 9.09734 0.79875 8.19352C0.82375 8.14352 0.85125 8.09477 0.8825 8.04851C1.975 6.22339 3.9725 4.99831 6.25 4.99831H15C15.6912 4.99831 16.25 5.55835 16.25 6.24839C16.25 6.93844 15.6912 7.49848 15 7.49848H6.25C5.14125 7.49848 4.1425 7.98226 3.45625 8.74981C4.16 9.53361 5.17625 9.99865 6.25 9.99865H20V11.2487C20 13.3164 21.6825 14.999 23.75 14.999C25.8175 14.999 27.5 13.3164 27.5 11.2487V10.2287C28.9513 10.7462 30 12.1213 30 13.7489ZM25 19.9993C25 18.9643 24.16 18.1242 23.125 18.1242C22.09 18.1242 21.25 18.9643 21.25 19.9993C21.25 21.0344 22.09 21.8744 23.125 21.8744C24.16 21.8744 25 21.0344 25 19.9993Z" fill="#49E3C1"/>
</svg>
