<svg width="30" height="30" viewBox="0 0 30 30" fill="none" xmlns="http://www.w3.org/2000/svg">
<g clip-path="url(#clip0_63_3649)">
<path d="M20.4317 16.25C19.5408 16.25 19.0946 17.3271 19.7246 17.9571L25.6807 23.9132C26.0942 24.3267 26.7755 24.3002 27.1201 23.8277C28.5214 21.9063 29.4436 19.6774 29.8095 17.3276C29.8995 16.7501 29.4366 16.25 28.8521 16.25H20.4317Z" fill="#49E3C1"/>
<path d="M14.1163 15.8837L14.0429 15.8104C13.8554 15.6229 13.75 15.3685 13.75 15.1033V1.1478C13.75 0.563306 13.25 0.100452 12.6725 0.190175C10.7027 0.496178 8.80985 1.19239 7.10655 2.24188C5.09465 3.48151 3.4041 5.17896 2.17267 7.19589C0.941234 9.21282 0.203762 11.4922 0.0203485 13.8482C-0.163065 16.2042 0.212769 18.5702 1.11722 20.7534C2.02168 22.9366 3.42916 24.8752 5.22498 26.4113C7.02079 27.9474 9.15412 29.0374 11.4511 29.5926C13.7481 30.1477 16.1438 30.1524 18.4429 29.606C20.3894 29.1435 22.2201 28.2971 23.8292 27.1204C24.301 26.7754 24.3272 26.0947 23.9139 25.6814L14.1163 15.8837Z" fill="#49E3C1"/>
<path d="M16.25 12.75C16.25 13.3023 16.6977 13.75 17.25 13.75H28.8505C29.4356 13.75 29.8986 13.2489 29.8078 12.6709C29.317 9.54753 27.8486 6.64896 25.5998 4.40019C23.351 2.15143 20.4525 0.683033 17.3291 0.192195C16.7511 0.101356 16.25 0.564413 16.25 1.14954V12.75Z" fill="#49E3C1"/>
</g>
<defs>
<clipPath id="clip0_63_3649">
<rect width="30" height="30" rx="15" fill="white"/>
</clipPath>
</defs>
</svg>
