<svg width="21" height="22" viewBox="0 0 21 22" fill="none" xmlns="http://www.w3.org/2000/svg">
<path d="M4.12509 0.875122H6.65632C8.52026 0.875122 10.0313 2.38615 10.0313 4.25009V6.78132C10.0313 8.64526 8.52026 10.1563 6.65632 10.1563H4.12509C2.26115 10.1563 0.750122 8.6453 0.750122 6.78132V4.25009C0.750122 2.38615 2.26115 0.875122 4.12509 0.875122Z" fill="#49E3C1"/>
<path d="M15.0938 0.875122H17.625C19.4889 0.875122 21 2.38615 21 4.25009V6.78132C21 8.64526 19.4889 10.1563 17.625 10.1563H15.0938C13.2298 10.1563 11.7188 8.64526 11.7188 6.78132V4.25009C11.7188 2.38615 13.2298 0.875122 15.0938 0.875122Z" fill="#49E3C1"/>
<path d="M4.12509 11.8438H6.65632C8.52026 11.8438 10.0313 13.3548 10.0313 15.2187V17.75C10.0313 19.6139 8.52026 21.1249 6.65632 21.1249H4.12509C2.26115 21.125 0.750122 19.614 0.750122 17.75V15.2188C0.750122 13.3548 2.26115 11.8438 4.12509 11.8438Z" fill="#49E3C1"/>
<path d="M15.0938 11.8438H17.625C19.4889 11.8438 21 13.3548 21 15.2187V17.75C21 19.614 19.4889 21.125 17.625 21.125H15.0938C13.2298 21.125 11.7188 19.614 11.7188 17.75V15.2188C11.7188 13.3548 13.2298 11.8438 15.0938 11.8438Z" fill="#49E3C1"/>
</svg>
