<svg width="16" height="17" viewBox="0 0 16 17" fill="none" xmlns="http://www.w3.org/2000/svg">
<path fill-rule="evenodd" clip-rule="evenodd" d="M4.40841 2.75078C5.29705 1.88435 6.49934 1.40005 7.75007 1.40005C9.00081 1.40005 10.2031 1.88435 11.0917 2.75078C11.9809 3.61767 12.4831 4.79652 12.4831 6.0288C12.4831 8.31516 12.9847 9.74333 13.4539 10.5821C13.6894 11.003 13.9201 11.2815 14.0831 11.4493C14.1648 11.5334 14.2298 11.59 14.2705 11.6231C14.2909 11.6396 14.3052 11.6503 14.3124 11.6555C14.3147 11.6572 14.3163 11.6583 14.3172 11.6589C14.5225 11.7956 14.6151 12.0505 14.5449 12.2875C14.474 12.5265 14.2544 12.6904 14.0051 12.6904H1.49501C1.24572 12.6904 1.02612 12.5265 0.955268 12.2875C0.88501 12.0505 0.977615 11.7956 1.18298 11.6589C1.18381 11.6583 1.1854 11.6572 1.18774 11.6555C1.19497 11.6503 1.20924 11.6396 1.2296 11.6231C1.27031 11.59 1.33538 11.5334 1.41704 11.4493C1.58008 11.2815 1.81072 11.003 2.04622 10.5821C2.51545 9.74333 3.01707 8.31516 3.01707 6.0288C3.01707 4.79652 3.51928 3.61767 4.40841 2.75078Z" stroke="black" stroke-width="1.2" stroke-linecap="round" stroke-linejoin="round"/>
<path fill-rule="evenodd" clip-rule="evenodd" d="M5.87401 14.7871C6.13252 14.6144 6.48212 14.6839 6.65487 14.9424C6.75553 15.093 6.90645 15.2273 7.10002 15.3241C7.29373 15.421 7.51834 15.4741 7.75056 15.4741C7.98279 15.4741 8.20739 15.421 8.40111 15.3241C8.59468 15.2273 8.7456 15.093 8.84626 14.9424C9.019 14.6839 9.3686 14.6144 9.62711 14.7871C9.88562 14.9599 9.95514 15.3095 9.7824 15.568C9.56522 15.893 9.25994 16.1535 8.90463 16.3311C8.54946 16.5087 8.15176 16.6 7.75056 16.6C7.34936 16.6 6.95166 16.5087 6.59649 16.3311C6.24118 16.1535 5.9359 15.893 5.71873 15.568C5.54598 15.3095 5.61551 14.9599 5.87401 14.7871Z" fill="black"/>
</svg>
