<svg width="19" height="18" viewBox="0 0 19 18" fill="none" xmlns="http://www.w3.org/2000/svg">
<path d="M7.76543 0C11.951 0 15.3441 3.24594 15.3441 7.25C15.3441 8.98187 14.7093 10.5719 13.6502 11.8188L18.7731 16.7197C19.0793 17.0126 19.0793 17.4874 18.7731 17.7803C18.4948 18.0466 18.0593 18.0708 17.7523 17.8529L17.6644 17.7803L12.5414 12.8795C11.2379 13.8927 9.57582 14.5 7.76543 14.5C3.57985 14.5 0.186768 11.2541 0.186768 7.25C0.186768 3.24594 3.57985 0 7.76543 0ZM7.76543 1.5C4.44584 1.5 1.75477 4.07436 1.75477 7.25C1.75477 10.4256 4.44584 13 7.76543 13C11.085 13 13.7761 10.4256 13.7761 7.25C13.7761 4.07436 11.085 1.5 7.76543 1.5Z" fill="#060F27"/>
</svg>
