<svg width="29" height="29" viewBox="0 0 29 29" fill="none" xmlns="http://www.w3.org/2000/svg">
<rect width="29" height="29" rx="10" fill="#49E3C1"/>
<path d="M23.9493 13.1321H15.868V5.05078C15.868 4.30693 15.265 3.7039 14.5211 3.7039C13.7773 3.7039 13.1743 4.30693 13.1743 5.05078V13.1321H5.09297C4.34912 13.1321 3.74609 13.7351 3.74609 14.4789C3.74609 15.2228 4.34912 15.8258 5.09297 15.8258H13.1743V23.9071C13.1743 24.651 13.7773 25.254 14.5211 25.254C15.265 25.254 15.868 24.651 15.868 23.9071V15.8258H23.9493C24.6931 15.8258 25.2962 15.2228 25.2962 14.4789C25.2962 13.7351 24.6931 13.1321 23.9493 13.1321Z" fill="black"/>
</svg>
