<svg width="23" height="19" viewBox="0 0 23 19" fill="none" xmlns="http://www.w3.org/2000/svg">
<path d="M2.27881 2.51573L1.97553 2.85135L2.27922 3.18662C2.91254 3.8858 3.82579 4.3 4.79167 4.3H20.125C21.4409 4.3 22.5 5.3561 22.5 6.65V16.15C22.5 17.4439 21.4409 18.5 20.125 18.5H4.79167C2.41772 18.5 0.5 16.5927 0.5 14.25V4.75C0.5 2.4073 2.41772 0.5 4.79167 0.5H22.0406C22.2166 0.50086 22.3131 0.562668 22.3711 0.628497C22.4374 0.703762 22.4814 0.81847 22.4814 0.94977C22.4815 1.08106 22.4375 1.1958 22.3712 1.27113C22.3133 1.33701 22.2166 1.39897 22.0404 1.4H4.79167C3.79557 1.4 2.89686 1.83176 2.27881 2.51573ZM19.1689 9.94998L19.1644 9.95C18.7146 9.95205 18.3416 10.1282 18.0863 10.4181C17.8393 10.6986 17.7265 11.0576 17.7265 11.4C17.7265 11.7424 17.8393 12.1014 18.0863 12.3819C18.3416 12.6718 18.7146 12.8479 19.1644 12.85L19.1689 12.85C19.6187 12.8479 19.9918 12.6718 20.247 12.3819C20.4941 12.1014 20.6068 11.7424 20.6068 11.4C20.6068 11.0576 20.4941 10.6986 20.247 10.4181C19.9918 10.1282 19.6187 9.95205 19.1689 9.94998Z" fill="white" stroke="white"/>
</svg>
