<svg width="19" height="19" viewBox="0 0 19 19" fill="none" xmlns="http://www.w3.org/2000/svg">
<path d="M13.8547 10.2692C12.9639 10.2692 12.5176 11.3462 13.1474 11.9762L16.0195 14.8495C16.433 15.2632 17.1164 15.2371 17.4408 14.7503C18.1289 13.7181 18.6076 12.5604 18.8496 11.3435C18.9636 10.7703 18.4991 10.2692 17.9146 10.2692H13.8547Z" fill="white"/>
<path d="M8.9673 10.0369C8.81859 9.88812 8.73505 9.68638 8.73505 9.47602V1.08534C8.73505 0.500829 8.23405 0.036357 7.66073 0.150158C6.55239 0.370157 5.48916 0.786568 4.52225 1.38258C3.24645 2.169 2.17442 3.24585 1.39354 4.52537C0.612653 5.8049 0.145002 7.2509 0.0286948 8.74553C-0.0876127 10.2402 0.150714 11.7412 0.724254 13.1262C1.29779 14.5112 2.19032 15.741 3.32909 16.7155C4.46787 17.69 5.82067 18.3815 7.27726 18.7337C8.73385 19.0859 10.253 19.0888 11.7109 18.7422C12.8162 18.4795 13.8625 18.0215 14.8018 17.3927C15.2873 17.0677 15.3131 16.3853 14.9 15.9721L8.9673 10.0369Z" fill="white"/>
<path d="M10.3203 7.68325C10.3203 8.23554 10.768 8.68325 11.3203 8.68325H17.9129C18.498 8.68325 18.9627 8.18123 18.8478 7.6075C18.4811 5.77582 17.581 4.08405 16.2493 2.7518C14.9177 1.41967 13.2268 0.519205 11.3961 0.152259C10.8224 0.0372612 10.3203 0.501937 10.3203 1.08708V7.68325Z" fill="white"/>
</svg>
